<?xml version="1.0" encoding="UTF-8" standalone="no"?>
<!-- Uploaded to: SVG Repo, www.svgrepo.com, Generator: SVG Repo Mixer Tools -->

<svg
   width="800px"
   height="800px"
   viewBox="0 0 24 24"
   version="1.1"
   id="svg2"
   inkscape:version="1.3.2 (091e20ef0f, 2023-11-25, custom)"
   stroke="currentColor"
   fill="currentColor"
   sodipodi:docname="BiliBili_TV_Icon.svg"
   xmlns:inkscape="http://www.inkscape.org/namespaces/inkscape"
   xmlns:sodipodi="http://sodipodi.sourceforge.net/DTD/sodipodi-0.dtd"
   xmlns="http://www.w3.org/2000/svg"
   xmlns:svg="http://www.w3.org/2000/svg">
  <defs
     id="defs2" />
  <sodipodi:namedview
     id="namedview2"
     pagecolor="#ffffff"
     bordercolor="#000000"
     borderopacity="0.25"
     inkscape:showpageshadow="2"
     inkscape:pageopacity="0.0"
     inkscape:pagecheckerboard="0"
     inkscape:deskcolor="#d1d1d1"
     inkscape:zoom="1.12125"
     inkscape:cx="340.69119"
     inkscape:cy="358.0825"
     inkscape:window-width="1896"
     inkscape:window-height="1026"
     inkscape:window-x="0"
     inkscape:window-y="0"
     inkscape:window-maximized="1"
     inkscape:current-layer="svg2" />
  <g
     id="g2">
    <path
       d="M 6.6536719,2.7056836 A 1.25,1.25 0 0 0 5.775,4.8550195 L 6.9159961,5.9970117 H 5.7499805 a 3.75,3.75 0 0 0 -3.75,3.75 v 7.5000003 a 3.75,3.75 0 0 0 3.75,3.75 H 18.25002 a 3.75,3.75 0 0 0 3.75,-3.75 V 9.7470117 a 3.75,3.75 0 0 0 -3.75,-3.7509961 h -1.17 l 1.142988,-1.1419922 a 1.25,1.25 0 0 0 0,-1.7680078 1.25,1.25 0 0 0 -1.768008,0 l -2.651016,2.6520117 c -0.079,0.078 -0.145984,0.1659885 -0.198984,0.2579883 h -3.212988 c -0.053,-0.092 -0.118989,-0.1779922 -0.197989,-0.2569922 L 7.5420117,3.0870117 A 1.25,1.25 0 0 0 6.6536719,2.7056836 Z M 6.6529102,8.1193359 H 17.56248 c 1.6848,0 3.041192,1.3563337 3.041192,3.0411331 v 4.5825 c 0,1.684799 -1.356392,3.041133 -3.041192,3.041133 H 6.6529102 c -1.6847992,0 -3.0411329,-1.356334 -3.0411329,-3.041133 v -4.5825 c 0,-1.6847994 1.3563337,-3.0411331 3.0411329,-3.0411331 z"
       style="display:inline"
       id="path1" />
  </g>
  <rect
     style="display:inline;stroke-width:1.8;stroke-linejoin:round;stroke-dasharray:none;stroke-opacity:1;paint-order:normal"
     id="rect7"
     width="0.06806656"
     height="3.3914363"
     x="13.883005"
     y="-0.54623538"
     ry="0.012697277"
     transform="rotate(51.638757)" />
  <rect
     style="display:inline;stroke-width:1.59204;stroke-linejoin:round;stroke-dasharray:none;stroke-opacity:1;paint-order:normal"
     id="rect8"
     width="0.039057586"
     height="4.707993"
     x="1.3135726"
     y="17.400625"
     ry="0.017626366"
     transform="matrix(0.57542327,-0.81785577,0.75814995,0.65208025,0,0)" />
  <path
     id="path12"
     style="display:inline;fill:none;stroke-width:1.5;stroke-linecap:round;stroke-linejoin:round;stroke-dasharray:none;paint-order:stroke fill markers"
     d="m 15.035573,15.036993 a 1.5859765,1.7207162 0 0 1 -0.70365,1.731165 1.5859765,1.7207162 0 0 1 -1.743805,-0.01653 1.5859765,1.7207162 0 0 1 -0.675655,-1.744244 m 0.05492,-0.0046 a 1.5859765,1.7207162 0 0 1 -0.70365,1.731168 1.5859765,1.7207162 0 0 1 -1.743805,-0.01653 1.5859765,1.7207162 0 0 1 -0.6756558,-1.744243" />
</svg>
